<svg xmlns="http://www.w3.org/2000/svg" viewBox="0 0 512 512" role="img" aria-label="FuelFlow logo">
  <defs>
    <radialGradient id="bg" cx="50%" cy="50%" r="60%">
      <stop offset="0%" stop-color="#2d507d"/>
      <stop offset="100%" stop-color="#1f3b63"/>
    </radialGradient>
  </defs>
  <rect width="512" height="512" fill="url(#bg)"/>
  <path fill="#050505" d="M124 237l52-28c11-6 24-10 37-10l44 2 2-12 18 1 24-16 52 19 7 29 50 28-5 10 13 12c8 8 13 18 15 29l3 16c1 6 4 12 8 17 12 14 17 31 16 49-1 10-7 19-15 24-9 6-20 9-30 7-15-2-27-12-33-26-3-7-4-14-4-21l1-12c1-9-3-19-10-25l-7-7-19 39-10-4 14-41-25-8-10 11a16 16 0 0 0 3 24l40 30a11 11 0 0 1 2 16l-7 10c-4 5-10 6-16 2l-56-42c-4-3-7-7-9-11l-18-55-22-2-46 28-9-16zm233 44-17 35 23-8-6-23zm43 9 8 8c12 11 18 27 16 44l-1 11c0 6 1 12 3 18 4 9 12 16 22 17 5 1 11 0 15-3 4-2 7-6 8-11 1-14-3-27-12-38-5-7-9-15-10-24l-3-15c-2-7-5-14-10-19l-12-12-24-13z"/>
</svg>
